<?xml version="1.0" encoding="UTF-8" standalone="no"?>
<!DOCTYPE svg PUBLIC "-//W3C//DTD SVG 1.1//EN"
 "http://www.w3.org/Graphics/SVG/1.1/DTD/svg11.dtd">
<!-- Generated by graphviz version 2.43.0 (0)
 -->
<!-- Title: main Pages: 1 -->
<svg width="159pt" height="142pt"
 viewBox="0.00 0.00 159.00 142.00" xmlns="http://www.w3.org/2000/svg" xmlns:xlink="http://www.w3.org/1999/xlink">
<g id="graph0" class="graph" transform="scale(1 1) rotate(0) translate(4 138)">
<title>main</title>
<polygon fill="white" stroke="transparent" points="-4,4 -4,-138 155,-138 155,4 -4,4"/>
<!-- Node1 -->
<g id="node1" class="node">
<title>Node1</title>
<g id="a_node1"><a xlink:title=" ">
<polygon fill="#bfbfbf" stroke="black" points="0,-57.5 0,-76.5 41,-76.5 41,-57.5 0,-57.5"/>
<text text-anchor="middle" x="20.5" y="-64.5" font-family="Helvetica,sans-Serif" font-size="10.00">main</text>
</a>
</g>
</g>
<!-- Node2 -->
<g id="node2" class="node">
<title>Node2</title>
<g id="a_node2"><a xlink:href="logging_8hpp.html#ad8bf2ebe714bdb6a1e216ed7d9efa7a3" target="_top" xlink:title=" ">
<polygon fill="white" stroke="black" points="77,-114.5 77,-133.5 151,-133.5 151,-114.5 77,-114.5"/>
<text text-anchor="middle" x="114" y="-121.5" font-family="Helvetica,sans-Serif" font-size="10.00">init_logging</text>
</a>
</g>
</g>
<!-- Node1&#45;&gt;Node2 -->
<g id="edge1" class="edge">
<title>Node1&#45;&gt;Node2</title>
<path fill="none" stroke="midnightblue" d="M34.9,-76.82C45.97,-84.76 62.2,-96.07 77,-105 79.5,-106.51 82.12,-108.02 84.77,-109.5"/>
<polygon fill="midnightblue" stroke="midnightblue" points="83.26,-112.66 93.72,-114.34 86.59,-106.5 83.26,-112.66"/>
</g>
<!-- Node3 -->
<g id="node3" class="node">
<title>Node3</title>
<g id="a_node3"><a xlink:href="logging_8hpp.html#ac0da20da5701af0f1ebd1e151f421c6e" target="_top" xlink:title=" ">
<polygon fill="white" stroke="black" points="84,-76.5 84,-95.5 144,-95.5 144,-76.5 84,-76.5"/>
<text text-anchor="middle" x="114" y="-83.5" font-family="Helvetica,sans-Serif" font-size="10.00">log_error</text>
</a>
</g>
</g>
<!-- Node1&#45;&gt;Node3 -->
<g id="edge2" class="edge">
<title>Node1&#45;&gt;Node3</title>
<path fill="none" stroke="midnightblue" d="M41.35,-71.12C50.85,-73.09 62.57,-75.53 73.76,-77.85"/>
<polygon fill="midnightblue" stroke="midnightblue" points="73.3,-81.33 83.8,-79.94 74.72,-74.48 73.3,-81.33"/>
</g>
<!-- Node4 -->
<g id="node4" class="node">
<title>Node4</title>
<g id="a_node4"><a xlink:href="logging_8hpp.html#aa3319a6ef549951728ffd4b89bf37fdf" target="_top" xlink:title=" ">
<polygon fill="white" stroke="black" points="86,-38.5 86,-57.5 142,-57.5 142,-38.5 86,-38.5"/>
<text text-anchor="middle" x="114" y="-45.5" font-family="Helvetica,sans-Serif" font-size="10.00">log_info</text>
</a>
</g>
</g>
<!-- Node1&#45;&gt;Node4 -->
<g id="edge3" class="edge">
<title>Node1&#45;&gt;Node4</title>
<path fill="none" stroke="midnightblue" d="M41.35,-62.88C51.44,-60.78 64.02,-58.17 75.81,-55.72"/>
<polygon fill="midnightblue" stroke="midnightblue" points="76.82,-59.09 85.9,-53.63 75.39,-52.23 76.82,-59.09"/>
</g>
<!-- Node5 -->
<g id="node5" class="node">
<title>Node5</title>
<g id="a_node5"><a xlink:href="logging_8hpp.html#ac10b7d5535a7a685844149efe783dacd" target="_top" xlink:title=" ">
<polygon fill="white" stroke="black" points="83.5,-0.5 83.5,-19.5 144.5,-19.5 144.5,-0.5 83.5,-0.5"/>
<text text-anchor="middle" x="114" y="-7.5" font-family="Helvetica,sans-Serif" font-size="10.00">log_warn</text>
</a>
</g>
</g>
<!-- Node1&#45;&gt;Node5 -->
<g id="edge4" class="edge">
<title>Node1&#45;&gt;Node5</title>
<path fill="none" stroke="midnightblue" d="M34.9,-57.18C45.97,-49.24 62.2,-37.93 77,-29 79.5,-27.49 82.12,-25.98 84.77,-24.5"/>
<polygon fill="midnightblue" stroke="midnightblue" points="86.59,-27.5 93.72,-19.66 83.26,-21.34 86.59,-27.5"/>
</g>
</g>
</svg>
