<?xml version="1.0" encoding="UTF-8" standalone="no"?>
<!DOCTYPE svg PUBLIC "-//W3C//DTD SVG 1.1//EN"
 "http://www.w3.org/Graphics/SVG/1.1/DTD/svg11.dtd">
<!-- Generated by graphviz version 2.43.0 (0)
 -->
<!-- Title: mqtt_json/mqtt_json_pub.cpp Pages: 1 -->
<svg width="484pt" height="95pt"
 viewBox="0.00 0.00 483.50 95.00" xmlns="http://www.w3.org/2000/svg" xmlns:xlink="http://www.w3.org/1999/xlink">
<g id="graph0" class="graph" transform="scale(1 1) rotate(0) translate(4 91)">
<title>mqtt_json/mqtt_json_pub.cpp</title>
<polygon fill="white" stroke="transparent" points="-4,4 -4,-91 479.5,-91 479.5,4 -4,4"/>
<!-- Node1 -->
<g id="node1" class="node">
<title>Node1</title>
<g id="a_node1"><a xlink:title=" ">
<polygon fill="#bfbfbf" stroke="black" points="135.5,-56.5 135.5,-86.5 252.5,-86.5 252.5,-56.5 135.5,-56.5"/>
<text text-anchor="start" x="143.5" y="-74.5" font-family="Helvetica,sans-Serif" font-size="10.00">mqtt_json/mqtt_json</text>
<text text-anchor="middle" x="194" y="-63.5" font-family="Helvetica,sans-Serif" font-size="10.00">_pub.cpp</text>
</a>
</g>
</g>
<!-- Node2 -->
<g id="node2" class="node">
<title>Node2</title>
<g id="a_node2"><a xlink:title=" ">
<polygon fill="white" stroke="#bfbfbf" points="0,-0.5 0,-19.5 60,-19.5 60,-0.5 0,-0.5"/>
<text text-anchor="middle" x="30" y="-7.5" font-family="Helvetica,sans-Serif" font-size="10.00">iostream</text>
</a>
</g>
</g>
<!-- Node1&#45;&gt;Node2 -->
<g id="edge1" class="edge">
<title>Node1&#45;&gt;Node2</title>
<path fill="none" stroke="midnightblue" d="M155.13,-56.4C127.25,-46.28 90.06,-32.79 63.49,-23.15"/>
<polygon fill="midnightblue" stroke="midnightblue" points="64.46,-19.78 53.86,-19.66 62.07,-26.36 64.46,-19.78"/>
</g>
<!-- Node3 -->
<g id="node3" class="node">
<title>Node3</title>
<g id="a_node3"><a xlink:title=" ">
<polygon fill="white" stroke="#bfbfbf" points="78,-0.5 78,-19.5 122,-19.5 122,-0.5 78,-0.5"/>
<text text-anchor="middle" x="100" y="-7.5" font-family="Helvetica,sans-Serif" font-size="10.00">ctime</text>
</a>
</g>
</g>
<!-- Node1&#45;&gt;Node3 -->
<g id="edge2" class="edge">
<title>Node1&#45;&gt;Node3</title>
<path fill="none" stroke="midnightblue" d="M171.72,-56.4C156.8,-46.95 137.22,-34.56 122.29,-25.11"/>
<polygon fill="midnightblue" stroke="midnightblue" points="124,-22.05 113.68,-19.66 120.26,-27.96 124,-22.05"/>
</g>
<!-- Node4 -->
<g id="node4" class="node">
<title>Node4</title>
<g id="a_node4"><a xlink:title=" ">
<polygon fill="white" stroke="#bfbfbf" points="140,-0.5 140,-19.5 184,-19.5 184,-0.5 140,-0.5"/>
<text text-anchor="middle" x="162" y="-7.5" font-family="Helvetica,sans-Serif" font-size="10.00">string</text>
</a>
</g>
</g>
<!-- Node1&#45;&gt;Node4 -->
<g id="edge3" class="edge">
<title>Node1&#45;&gt;Node4</title>
<path fill="none" stroke="midnightblue" d="M186.42,-56.4C181.96,-48.11 176.28,-37.55 171.52,-28.71"/>
<polygon fill="midnightblue" stroke="midnightblue" points="174.48,-26.81 166.66,-19.66 168.31,-30.12 174.48,-26.81"/>
</g>
<!-- Node5 -->
<g id="node5" class="node">
<title>Node5</title>
<g id="a_node5"><a xlink:title=" ">
<polygon fill="white" stroke="#bfbfbf" points="202.5,-0.5 202.5,-19.5 249.5,-19.5 249.5,-0.5 202.5,-0.5"/>
<text text-anchor="middle" x="226" y="-7.5" font-family="Helvetica,sans-Serif" font-size="10.00">vector</text>
</a>
</g>
</g>
<!-- Node1&#45;&gt;Node5 -->
<g id="edge4" class="edge">
<title>Node1&#45;&gt;Node5</title>
<path fill="none" stroke="midnightblue" d="M201.58,-56.4C206.04,-48.11 211.72,-37.55 216.48,-28.71"/>
<polygon fill="midnightblue" stroke="midnightblue" points="219.69,-30.12 221.34,-19.66 213.52,-26.81 219.69,-30.12"/>
</g>
<!-- Node6 -->
<g id="node6" class="node">
<title>Node6</title>
<g id="a_node6"><a xlink:title=" ">
<polygon fill="white" stroke="#bfbfbf" points="268,-0.5 268,-19.5 378,-19.5 378,-0.5 268,-0.5"/>
<text text-anchor="middle" x="323" y="-7.5" font-family="Helvetica,sans-Serif" font-size="10.00">nlohmann/json.hpp</text>
</a>
</g>
</g>
<!-- Node1&#45;&gt;Node6 -->
<g id="edge5" class="edge">
<title>Node1&#45;&gt;Node6</title>
<path fill="none" stroke="midnightblue" d="M224.57,-56.4C245.93,-46.55 274.22,-33.5 294.98,-23.92"/>
<polygon fill="midnightblue" stroke="midnightblue" points="296.61,-27.02 304.23,-19.66 293.68,-20.67 296.61,-27.02"/>
</g>
<!-- Node7 -->
<g id="node7" class="node">
<title>Node7</title>
<g id="a_node7"><a xlink:title=" ">
<polygon fill="white" stroke="#bfbfbf" points="396.5,-0.5 396.5,-19.5 475.5,-19.5 475.5,-0.5 396.5,-0.5"/>
<text text-anchor="middle" x="436" y="-7.5" font-family="Helvetica,sans-Serif" font-size="10.00">mqtt/client.h</text>
</a>
</g>
</g>
<!-- Node1&#45;&gt;Node7 -->
<g id="edge6" class="edge">
<title>Node1&#45;&gt;Node7</title>
<path fill="none" stroke="midnightblue" d="M251.04,-56.47C293.98,-45.92 351.99,-31.66 391.52,-21.94"/>
<polygon fill="midnightblue" stroke="midnightblue" points="392.53,-25.29 401.4,-19.51 390.86,-18.5 392.53,-25.29"/>
</g>
</g>
</svg>
